<svg id="Lager_1" data-name="Lager 1" xmlns="http://www.w3.org/2000/svg" viewBox="0 0 200 200">
  <defs>
    <style>
      .cls-1 {
        fill: #010002;
      }
    </style>
  </defs>
  <title>heart_icnonsonso</title>
  <path class="cls-1" d="M100.6,185.1a3.68,3.68,0,0,1-2.57-1c-.15-.14-15.77-15.25-78.24-77.72l-.43-.44a11.92,11.92,0,0,1-1-1A53.53,53.53,0,1,1,99.94,35.71a53.53,53.53,0,1,1,79,71.66,1.08,1.08,0,0,1-.25.29c-62.85,62.86-75.3,76.14-75.42,76.26a3.67,3.67,0,0,1-2.6,1.18Zm-43.14-163A46.12,46.12,0,0,0,23.62,99.61l.42.49c.1.12.2.24.33.37l.28.28.36.36c48.72,48.71,68.91,68.6,75.5,75,6.12-6.35,24.73-25.45,73-73.71l.3-.34a46.14,46.14,0,1,0-70.7-57.93,3.83,3.83,0,0,1-6.3,0A45.91,45.91,0,0,0,57.46,22.09Z"/>
</svg>
