<svg id="Lager_1" data-name="Lager 1" xmlns="http://www.w3.org/2000/svg" viewBox="0 0 100 100"><defs><style>.cls-1{fill:#010002;}</style></defs><title>heart_icon</title><path class="cls-1" d="M50.36,95.31a1.76,1.76,0,0,1-1.25-.51c-.08-.07-7.71-7.46-38.26-38l-.21-.21c-.24-.24-.35-.37-.47-.5A26.18,26.18,0,0,1,29.27,12,26,26,0,0,1,50,22.27a26.17,26.17,0,1,1,38.64,35,.54.54,0,0,1-.13.14C57.83,88.18,51.74,94.67,51.68,94.73a1.82,1.82,0,0,1-1.27.58ZM29.27,15.61a22.55,22.55,0,0,0-16.55,37.9l.21.24.16.18.14.14.17.18C37.22,78.06,47.1,87.78,50.32,90.93c3-3.11,12.09-12.44,35.68-36l.15-.16A22.56,22.56,0,1,0,51.58,26.41a1.88,1.88,0,0,1-3.08,0A22.44,22.44,0,0,0,29.27,15.61Z"/></svg>