<svg id="Lager_1" data-name="Lager 1" xmlns="http://www.w3.org/2000/svg" viewBox="0 0 181.51 161"><defs><style>.cls-1{fill:#010002;}</style></defs><title>heart_icn</title><path class="cls-1" d="M100.37,181.78a3.52,3.52,0,0,1-2.42-1c-.14-.14-14.9-14.42-73.93-73.44l-.41-.41c-.46-.46-.68-.72-.9-1a50.58,50.58,0,0,1,36.9-85.2A50.19,50.19,0,0,1,99.75,40.63a50.58,50.58,0,1,1,74.67,67.71,1.08,1.08,0,0,1-.24.27C114.8,168,103,180.55,102.93,180.66a3.46,3.46,0,0,1-2.46,1.11Zm-40.75-154a43.57,43.57,0,0,0-32,73.24l.4.47c.1.11.19.23.31.35l.26.26.35.34c46,46,65.1,64.81,71.33,70.9,5.78-6,23.36-24,69-69.64l.29-.33a43.59,43.59,0,1,0-66.81-54.72,3.63,3.63,0,0,1-6,0A43.34,43.34,0,0,0,59.62,27.76Z" transform="translate(-9 -20.78)"/></svg>